<?xml version="1.0" encoding="UTF-8"?><svg xmlns="http://www.w3.org/2000/svg" xmlns:xlink="http://www.w3.org/1999/xlink" fill-opacity="1" color-rendering="auto" color-interpolation="auto" stroke="black" text-rendering="auto" stroke-linecap="square" width="927" stroke-miterlimit="10" stroke-opacity="1" shape-rendering="auto" fill="black" stroke-dasharray="none" font-weight="normal" stroke-width="1" height="761" font-family="'Dialog'" font-style="normal" stroke-linejoin="miter" font-size="12" stroke-dashoffset="0" image-rendering="auto">
  <!--Generated by ySVG-->
  <defs id="genericDefs"/>
  <g>
    <defs id="defs1">
      <clipPath clipPathUnits="userSpaceOnUse" id="clipPath1">
        <path d="M0 0 L927 0 L927 761 L0 761 L0 0 Z"/>
      </clipPath>
      <clipPath clipPathUnits="userSpaceOnUse" id="clipPath2">
        <path d="M-15 -15 L912 -15 L912 746 L-15 746 L-15 -15 Z"/>
      </clipPath>
    </defs>
    <g fill="white" transform="translate(15,15)" stroke="white">
      <rect x="-15" width="927" height="761" y="-15" clip-path="url(#clipPath2)" stroke="none"/>
    </g>
    <g id="y.node.0">
      <g fill="rgb(255,196,196)" transform="matrix(1,0,0,1,15,15)" stroke="rgb(255,196,196)">
        <rect x="271" width="90" height="30" y="169" stroke="none"/>
      </g>
      <g>
        <g stroke-miterlimit="1.45" font-family="sans-serif" transform="matrix(1,0,0,1,15,15)" stroke-linecap="butt">
          <text x="312.1826" xml:space="preserve" y="188.1562" stroke="none">1</text>
        </g>
      </g>
      <g stroke-linecap="butt" transform="matrix(1,0,0,1,15,15)" stroke-miterlimit="1.45">
        <rect fill="none" x="271" width="90" height="30" y="169"/>
      </g>
    </g>
    <g id="y.node.1">
      <g fill="rgb(210,196,240)" transform="matrix(1,0,0,1,15,15)" stroke="rgb(210,196,240)">
        <rect x="0" y="671" width="70" rx="4" ry="4" height="60" stroke="none"/>
      </g>
      <g>
        <g stroke-miterlimit="1.45" font-family="sans-serif" transform="matrix(1,0,0,1,15,15)" stroke-linecap="butt">
          <text x="31.1826" xml:space="preserve" y="705.1562" stroke="none">2</text>
        </g>
      </g>
      <g stroke-linecap="butt" transform="matrix(1,0,0,1,15,15)" stroke-miterlimit="1.45">
        <rect x="0" y="671" fill="none" width="70" rx="4" ry="4" height="60"/>
      </g>
    </g>
    <g id="y.node.2">
      <g fill="rgb(247,196,203)" transform="matrix(1,0,0,1,15,15)" stroke="rgb(247,196,203)">
        <rect x="341" width="80" height="30" y="57" stroke="none"/>
      </g>
      <g>
        <g stroke-miterlimit="1.45" font-family="sans-serif" transform="matrix(1,0,0,1,15,15)" stroke-linecap="butt">
          <text x="377.1826" xml:space="preserve" y="76.1562" stroke="none">3</text>
        </g>
      </g>
      <g stroke-linecap="butt" transform="matrix(1,0,0,1,15,15)" stroke-miterlimit="1.45">
        <rect fill="none" x="341" width="80" height="30" y="57"/>
      </g>
    </g>
    <g id="y.node.3">
      <g fill="rgb(240,196,210)" transform="matrix(1,0,0,1,15,15)" stroke="rgb(240,196,210)">
        <rect x="267" y="381" width="90" rx="4" ry="4" height="30" stroke="none"/>
      </g>
      <g>
        <g stroke-miterlimit="1.45" font-family="sans-serif" transform="matrix(1,0,0,1,15,15)" stroke-linecap="butt">
          <text x="308.1826" xml:space="preserve" y="400.1562" stroke="none">4</text>
        </g>
      </g>
      <g stroke-linecap="butt" transform="matrix(1,0,0,1,15,15)" stroke-miterlimit="1.45">
        <rect x="267" y="381" fill="none" width="90" rx="4" ry="4" height="30"/>
      </g>
    </g>
    <g id="y.node.4">
      <g fill="rgb(218,196,232)" transform="matrix(1,0,0,1,15,15)" stroke="rgb(218,196,232)">
        <rect x="76" y="597" width="70" rx="4" ry="4" height="60" stroke="none"/>
      </g>
      <g>
        <g stroke-miterlimit="1.45" font-family="sans-serif" transform="matrix(1,0,0,1,15,15)" stroke-linecap="butt">
          <text x="107.1826" xml:space="preserve" y="631.1562" stroke="none">5</text>
        </g>
      </g>
      <g stroke-linecap="butt" transform="matrix(1,0,0,1,15,15)" stroke-miterlimit="1.45">
        <rect x="76" y="597" fill="none" width="70" rx="4" ry="4" height="60"/>
      </g>
    </g>
    <g id="y.node.5">
      <g fill="rgb(247,196,203)" transform="matrix(1,0,0,1,15,15)" stroke="rgb(247,196,203)">
        <path d="M169 239 L209 209 L249 239 L209 269 Z" stroke="none" fill-rule="evenodd"/>
      </g>
      <g>
        <g stroke-miterlimit="1.45" font-family="sans-serif" transform="matrix(1,0,0,1,15,15)" stroke-linecap="butt">
          <text x="205.1826" xml:space="preserve" y="243.1562" stroke="none">6</text>
        </g>
      </g>
      <g stroke-linecap="butt" transform="matrix(1,0,0,1,15,15)" stroke-miterlimit="1.45">
        <path fill="none" d="M169 239 L209 209 L249 239 L209 269 Z" fill-rule="evenodd"/>
      </g>
    </g>
    <g id="y.node.6">
      <g fill="rgb(240,196,210)" transform="matrix(1,0,0,1,15,15)" stroke="rgb(240,196,210)">
        <ellipse rx="35" ry="30" cx="474" cy="99" stroke="none"/>
      </g>
      <g>
        <g stroke-miterlimit="1.45" font-family="sans-serif" transform="matrix(1,0,0,1,15,15)" stroke-linecap="butt">
          <text x="470.1826" xml:space="preserve" y="103.1562" stroke="none">7</text>
        </g>
      </g>
      <g stroke-linecap="butt" transform="matrix(1,0,0,1,15,15)" stroke-miterlimit="1.45">
        <ellipse rx="35" fill="none" ry="30" cx="474" cy="99"/>
      </g>
    </g>
    <g id="y.node.7">
      <g fill="rgb(232,196,218)" transform="matrix(1,0,0,1,15,15)" stroke="rgb(232,196,218)">
        <rect x="440" width="80" height="60" y="161" stroke="none"/>
      </g>
      <g>
        <g stroke-miterlimit="1.45" font-family="sans-serif" transform="matrix(1,0,0,1,15,15)" stroke-linecap="butt">
          <text x="476.1826" xml:space="preserve" y="195.1562" stroke="none">8</text>
        </g>
      </g>
      <g stroke-linecap="butt" transform="matrix(1,0,0,1,15,15)" stroke-miterlimit="1.45">
        <rect fill="none" x="440" width="80" height="60" y="161"/>
      </g>
    </g>
    <g id="y.node.8">
      <g fill="rgb(232,196,218)" transform="matrix(1,0,0,1,15,15)" stroke="rgb(232,196,218)">
        <rect x="404" y="405" width="80" rx="4" ry="4" height="30" stroke="none"/>
      </g>
      <g>
        <g stroke-miterlimit="1.45" font-family="sans-serif" transform="matrix(1,0,0,1,15,15)" stroke-linecap="butt">
          <text x="440.1826" xml:space="preserve" y="424.1562" stroke="none">9</text>
        </g>
      </g>
      <g stroke-linecap="butt" transform="matrix(1,0,0,1,15,15)" stroke-miterlimit="1.45">
        <rect x="404" y="405" fill="none" width="80" rx="4" ry="4" height="30"/>
      </g>
    </g>
    <g id="y.node.9">
      <g fill="rgb(225,196,225)" transform="matrix(1,0,0,1,15,15)" stroke="rgb(225,196,225)">
        <rect x="528" width="80" height="60" y="365" stroke="none"/>
      </g>
      <g>
        <g stroke-miterlimit="1.45" font-family="sans-serif" transform="matrix(1,0,0,1,15,15)" stroke-linecap="butt">
          <text x="560.3652" xml:space="preserve" y="399.1562" stroke="none">10</text>
        </g>
      </g>
      <g stroke-linecap="butt" transform="matrix(1,0,0,1,15,15)" stroke-miterlimit="1.45">
        <rect fill="none" x="528" width="80" height="60" y="365"/>
      </g>
    </g>
    <g id="y.node.10">
      <g fill="rgb(247,196,203)" transform="matrix(1,0,0,1,15,15)" stroke="rgb(247,196,203)">
        <rect x="275" y="274" width="50" rx="4" ry="4" height="30" stroke="none"/>
      </g>
      <g>
        <g stroke-miterlimit="1.45" font-family="sans-serif" transform="matrix(1,0,0,1,15,15)" stroke-linecap="butt">
          <text x="292.3652" xml:space="preserve" y="293.1562" stroke="none">11</text>
        </g>
      </g>
      <g stroke-linecap="butt" transform="matrix(1,0,0,1,15,15)" stroke-miterlimit="1.45">
        <rect x="275" y="274" fill="none" width="50" rx="4" ry="4" height="30"/>
      </g>
    </g>
    <g id="y.node.11">
      <g fill="rgb(240,196,210)" transform="matrix(1,0,0,1,15,15)" stroke="rgb(240,196,210)">
        <rect x="62" width="70" height="60" y="192" stroke="none"/>
      </g>
      <g>
        <g stroke-miterlimit="1.45" font-family="sans-serif" transform="matrix(1,0,0,1,15,15)" stroke-linecap="butt">
          <text x="89.3652" xml:space="preserve" y="226.1562" stroke="none">12</text>
        </g>
      </g>
      <g stroke-linecap="butt" transform="matrix(1,0,0,1,15,15)" stroke-miterlimit="1.45">
        <rect fill="none" x="62" width="70" height="60" y="192"/>
      </g>
    </g>
    <g id="y.node.12">
      <g fill="rgb(240,196,210)" transform="matrix(1,0,0,1,15,15)" stroke="rgb(240,196,210)">
        <ellipse rx="45" ry="30" cx="566" cy="226" stroke="none"/>
      </g>
      <g>
        <g stroke-miterlimit="1.45" font-family="sans-serif" transform="matrix(1,0,0,1,15,15)" stroke-linecap="butt">
          <text x="558.3652" xml:space="preserve" y="230.1562" stroke="none">13</text>
        </g>
      </g>
      <g stroke-linecap="butt" transform="matrix(1,0,0,1,15,15)" stroke-miterlimit="1.45">
        <ellipse rx="45" fill="none" ry="30" cx="566" cy="226"/>
      </g>
    </g>
    <g id="y.node.13">
      <g fill="rgb(232,196,218)" transform="matrix(1,0,0,1,15,15)" stroke="rgb(232,196,218)">
        <rect x="538" width="40" height="30" y="301" stroke="none"/>
      </g>
      <g>
        <g stroke-miterlimit="1.45" font-family="sans-serif" transform="matrix(1,0,0,1,15,15)" stroke-linecap="butt">
          <text x="550.3652" xml:space="preserve" y="320.1562" stroke="none">14</text>
        </g>
      </g>
      <g stroke-linecap="butt" transform="matrix(1,0,0,1,15,15)" stroke-miterlimit="1.45">
        <rect fill="none" x="538" width="40" height="30" y="301"/>
      </g>
    </g>
    <g id="y.node.14">
      <g fill="rgb(225,196,225)" transform="matrix(1,0,0,1,15,15)" stroke="rgb(225,196,225)">
        <ellipse rx="40" ry="15" cx="595" cy="159" stroke="none"/>
      </g>
      <g>
        <g stroke-miterlimit="1.45" font-family="sans-serif" transform="matrix(1,0,0,1,15,15)" stroke-linecap="butt">
          <text x="587.3652" xml:space="preserve" y="163.1562" stroke="none">15</text>
        </g>
      </g>
      <g stroke-linecap="butt" transform="matrix(1,0,0,1,15,15)" stroke-miterlimit="1.45">
        <ellipse rx="40" fill="none" ry="15" cx="595" cy="159"/>
      </g>
    </g>
    <g id="y.node.15">
      <g fill="rgb(247,196,203)" transform="matrix(1,0,0,1,15,15)" stroke="rgb(247,196,203)">
        <rect x="389" y="167" width="50" rx="4" ry="4" height="30" stroke="none"/>
      </g>
      <g>
        <g stroke-miterlimit="1.45" font-family="sans-serif" transform="matrix(1,0,0,1,15,15)" stroke-linecap="butt">
          <text x="406.3652" xml:space="preserve" y="186.1562" stroke="none">16</text>
        </g>
      </g>
      <g stroke-linecap="butt" transform="matrix(1,0,0,1,15,15)" stroke-miterlimit="1.45">
        <rect x="389" y="167" fill="none" width="50" rx="4" ry="4" height="30"/>
      </g>
    </g>
    <g id="y.node.16">
      <g fill="rgb(203,196,247)" transform="matrix(1,0,0,1,15,15)" stroke="rgb(203,196,247)">
        <rect x="712" width="70" height="30" y="581" stroke="none"/>
      </g>
      <g>
        <g stroke-miterlimit="1.45" font-family="sans-serif" transform="matrix(1,0,0,1,15,15)" stroke-linecap="butt">
          <text x="739.3652" xml:space="preserve" y="600.1562" stroke="none">17</text>
        </g>
      </g>
      <g stroke-linecap="butt" transform="matrix(1,0,0,1,15,15)" stroke-miterlimit="1.45">
        <rect fill="none" x="712" width="70" height="30" y="581"/>
      </g>
    </g>
    <g id="y.node.17">
      <g fill="rgb(240,196,210)" transform="matrix(1,0,0,1,15,15)" stroke="rgb(240,196,210)">
        <ellipse rx="35" ry="15" cx="221" cy="345" stroke="none"/>
      </g>
      <g>
        <g stroke-miterlimit="1.45" font-family="sans-serif" transform="matrix(1,0,0,1,15,15)" stroke-linecap="butt">
          <text x="213.3652" xml:space="preserve" y="349.1562" stroke="none">18</text>
        </g>
      </g>
      <g stroke-linecap="butt" transform="matrix(1,0,0,1,15,15)" stroke-miterlimit="1.45">
        <ellipse rx="35" fill="none" ry="15" cx="221" cy="345"/>
      </g>
    </g>
    <g id="y.node.18">
      <g fill="rgb(203,196,247)" transform="matrix(1,0,0,1,15,15)" stroke="rgb(203,196,247)">
        <rect x="653" width="80" height="30" y="653" stroke="none"/>
      </g>
      <g>
        <g stroke-miterlimit="1.45" font-family="sans-serif" transform="matrix(1,0,0,1,15,15)" stroke-linecap="butt">
          <text x="685.3652" xml:space="preserve" y="672.1562" stroke="none">19</text>
        </g>
      </g>
      <g stroke-linecap="butt" transform="matrix(1,0,0,1,15,15)" stroke-miterlimit="1.45">
        <rect fill="none" x="653" width="80" height="30" y="653"/>
      </g>
    </g>
    <g id="y.node.19">
      <g fill="rgb(247,196,203)" transform="matrix(1,0,0,1,15,15)" stroke="rgb(247,196,203)">
        <ellipse rx="40" ry="30" cx="318" cy="118" stroke="none"/>
      </g>
      <g>
        <g stroke-miterlimit="1.45" font-family="sans-serif" transform="matrix(1,0,0,1,15,15)" stroke-linecap="butt">
          <text x="310.3652" xml:space="preserve" y="122.1562" stroke="none">20</text>
        </g>
      </g>
      <g stroke-linecap="butt" transform="matrix(1,0,0,1,15,15)" stroke-miterlimit="1.45">
        <ellipse rx="40" fill="none" ry="30" cx="318" cy="118"/>
      </g>
    </g>
    <g id="y.node.20">
      <a target="_blank" xlink:type="simple" xlink:href="http://www.google.com" xlink:show="new">
        <g fill="rgb(240,196,210)" transform="matrix(1,0,0,1,15,15)" stroke="rgb(240,196,210)">
          <rect x="440" y="0" width="50" rx="4" ry="4" height="30" stroke="none"/>
        </g>
        <g>
          <g stroke-miterlimit="1.45" font-family="sans-serif" transform="matrix(1,0,0,1,15,15)" stroke-linecap="butt">
            <text x="457.3652" xml:space="preserve" y="19.1562" stroke="none">21</text>
          </g>
        </g>
        <g stroke-linecap="butt" transform="matrix(1,0,0,1,15,15)" stroke-miterlimit="1.45">
          <rect x="440" y="0" fill="none" width="50" rx="4" ry="4" height="30"/>
        </g>
      </a>
    </g>
    <g id="y.node.21">
      <g fill="rgb(247,196,203)" transform="matrix(1,0,0,1,15,15)" stroke="rgb(247,196,203)">
        <rect x="191" width="70" height="30" y="112" stroke="none"/>
      </g>
      <g>
        <g stroke-miterlimit="1.45" font-family="sans-serif" transform="matrix(1,0,0,1,15,15)" stroke-linecap="butt">
          <text x="218.3652" xml:space="preserve" y="131.1562" stroke="none">22</text>
        </g>
      </g>
      <g stroke-linecap="butt" transform="matrix(1,0,0,1,15,15)" stroke-miterlimit="1.45">
        <rect fill="none" x="191" width="70" height="30" y="112"/>
      </g>
    </g>
    <g id="y.node.22">
      <g fill="rgb(232,196,218)" transform="matrix(1,0,0,1,15,15)" stroke="rgb(232,196,218)">
        <rect x="204" y="456" width="70" rx="4" ry="4" height="60" stroke="none"/>
      </g>
      <g>
        <g stroke-miterlimit="1.45" font-family="sans-serif" transform="matrix(1,0,0,1,15,15)" stroke-linecap="butt">
          <text x="231.3652" xml:space="preserve" y="490.1562" stroke="none">23</text>
        </g>
      </g>
      <g stroke-linecap="butt" transform="matrix(1,0,0,1,15,15)" stroke-miterlimit="1.45">
        <rect x="204" y="456" fill="none" width="70" rx="4" ry="4" height="60"/>
      </g>
    </g>
    <g id="y.node.23">
      <g fill="rgb(225,196,225)" transform="matrix(1,0,0,1,15,15)" stroke="rgb(225,196,225)">
        <path d="M615 78 L650 63 L685 78 L650 93 Z" stroke="none" fill-rule="evenodd"/>
      </g>
      <g>
        <g stroke-miterlimit="1.45" font-family="sans-serif" transform="matrix(1,0,0,1,15,15)" stroke-linecap="butt">
          <text x="642.3652" xml:space="preserve" y="82.1562" stroke="none">24</text>
        </g>
      </g>
      <g stroke-linecap="butt" transform="matrix(1,0,0,1,15,15)" stroke-miterlimit="1.45">
        <path fill="none" d="M615 78 L650 63 L685 78 L650 93 Z" fill-rule="evenodd"/>
      </g>
    </g>
    <g id="y.node.24">
      <g fill="rgb(218,196,232)" transform="matrix(1,0,0,1,15,15)" stroke="rgb(218,196,232)">
        <rect x="588" y="484" width="60" rx="4" ry="4" height="30" stroke="none"/>
      </g>
      <g>
        <g stroke-miterlimit="1.45" font-family="sans-serif" transform="matrix(1,0,0,1,15,15)" stroke-linecap="butt">
          <text x="610.3652" xml:space="preserve" y="503.1562" stroke="none">25</text>
        </g>
      </g>
      <g stroke-linecap="butt" transform="matrix(1,0,0,1,15,15)" stroke-miterlimit="1.45">
        <rect x="588" y="484" fill="none" width="60" rx="4" ry="4" height="30"/>
      </g>
    </g>
    <g id="y.node.25">
      <g fill="rgb(203,196,247)" transform="matrix(1,0,0,1,15,15)" stroke="rgb(203,196,247)">
        <rect x="800" width="70" height="60" y="506" stroke="none"/>
      </g>
      <g>
        <g stroke-miterlimit="1.45" font-family="sans-serif" transform="matrix(1,0,0,1,15,15)" stroke-linecap="butt">
          <text x="827.3652" xml:space="preserve" y="540.1562" stroke="none">26</text>
        </g>
      </g>
      <g stroke-linecap="butt" transform="matrix(1,0,0,1,15,15)" stroke-miterlimit="1.45">
        <rect fill="none" x="800" width="70" height="60" y="506"/>
      </g>
    </g>
    <g id="y.node.26">
      <g fill="rgb(210,196,240)" transform="matrix(1,0,0,1,15,15)" stroke="rgb(210,196,240)">
        <path d="M686 502 L726 472 L766 502 L726 532 Z" stroke="none" fill-rule="evenodd"/>
      </g>
      <g>
        <g stroke-miterlimit="1.45" font-family="sans-serif" transform="matrix(1,0,0,1,15,15)" stroke-linecap="butt">
          <text x="718.3652" xml:space="preserve" y="506.1562" stroke="none">27</text>
        </g>
      </g>
      <g stroke-linecap="butt" transform="matrix(1,0,0,1,15,15)" stroke-miterlimit="1.45">
        <path fill="none" d="M686 502 L726 472 L766 502 L726 532 Z" fill-rule="evenodd"/>
      </g>
    </g>
    <g id="y.node.27">
      <g fill="rgb(225,196,225)" transform="matrix(1,0,0,1,15,15)" stroke="rgb(225,196,225)">
        <rect x="156" y="543" width="40" rx="4" ry="4" height="30" stroke="none"/>
      </g>
      <g>
        <g stroke-miterlimit="1.45" font-family="sans-serif" transform="matrix(1,0,0,1,15,15)" stroke-linecap="butt">
          <text x="168.3652" xml:space="preserve" y="562.1562" stroke="none">28</text>
        </g>
      </g>
      <g stroke-linecap="butt" transform="matrix(1,0,0,1,15,15)" stroke-miterlimit="1.45">
        <rect x="156" y="543" fill="none" width="40" rx="4" ry="4" height="30"/>
      </g>
    </g>
    <g id="y.node.28">
      <g fill="rgb(225,196,225)" transform="matrix(1,0,0,1,15,15)" stroke="rgb(225,196,225)">
        <ellipse rx="40" ry="30" cx="513" cy="507" stroke="none"/>
      </g>
      <g>
        <g stroke-miterlimit="1.45" font-family="sans-serif" transform="matrix(1,0,0,1,15,15)" stroke-linecap="butt">
          <text x="505.3652" xml:space="preserve" y="511.1562" stroke="none">29</text>
        </g>
      </g>
      <g stroke-linecap="butt" transform="matrix(1,0,0,1,15,15)" stroke-miterlimit="1.45">
        <ellipse rx="40" fill="none" ry="30" cx="513" cy="507"/>
      </g>
    </g>
    <g id="y.node.29">
      <g fill="rgb(225,196,225)" transform="matrix(1,0,0,1,15,15)" stroke="rgb(225,196,225)">
        <rect x="354" y="432" width="40" rx="4" ry="4" height="30" stroke="none"/>
      </g>
      <g>
        <g stroke-miterlimit="1.45" font-family="sans-serif" transform="matrix(1,0,0,1,15,15)" stroke-linecap="butt">
          <text x="366.3652" xml:space="preserve" y="451.1562" stroke="none">30</text>
        </g>
      </g>
      <g stroke-linecap="butt" transform="matrix(1,0,0,1,15,15)" stroke-miterlimit="1.45">
        <rect x="354" y="432" fill="none" width="40" rx="4" ry="4" height="30"/>
      </g>
    </g>
    <g id="y.node.30">
      <g fill="rgb(196,196,255)" transform="matrix(1,0,0,1,15,15)" stroke="rgb(196,196,255)">
        <path d="M757 696 L782 681 L807 696 L782 711 Z" stroke="none" fill-rule="evenodd"/>
      </g>
      <g>
        <g stroke-miterlimit="1.45" font-family="sans-serif" transform="matrix(1,0,0,1,15,15)" stroke-linecap="butt">
          <text x="774.3652" xml:space="preserve" y="700.1562" stroke="none">31</text>
        </g>
      </g>
      <g stroke-linecap="butt" transform="matrix(1,0,0,1,15,15)" stroke-miterlimit="1.45">
        <path fill="none" d="M757 696 L782 681 L807 696 L782 711 Z" fill-rule="evenodd"/>
      </g>
    </g>
    <g id="y.node.31">
      <g fill="rgb(210,196,240)" transform="matrix(1,0,0,1,15,15)" stroke="rgb(210,196,240)">
        <rect x="617" y="575" width="40" rx="4" ry="4" height="30" stroke="none"/>
      </g>
      <g>
        <g stroke-miterlimit="1.45" font-family="sans-serif" transform="matrix(1,0,0,1,15,15)" stroke-linecap="butt">
          <text x="629.3652" xml:space="preserve" y="594.1562" stroke="none">32</text>
        </g>
      </g>
      <g stroke-linecap="butt" transform="matrix(1,0,0,1,15,15)" stroke-miterlimit="1.45">
        <rect x="617" y="575" fill="none" width="40" rx="4" ry="4" height="30"/>
      </g>
    </g>
    <g id="y.node.32">
      <g fill="rgb(225,196,225)" transform="matrix(1,0,0,1,15,15)" stroke="rgb(225,196,225)">
        <rect x="429" width="80" height="60" y="267" stroke="none"/>
      </g>
      <g>
        <g stroke-miterlimit="1.45" font-family="sans-serif" transform="matrix(1,0,0,1,15,15)" stroke-linecap="butt">
          <text x="461.3652" xml:space="preserve" y="301.1562" stroke="none">33</text>
        </g>
      </g>
      <g stroke-linecap="butt" transform="matrix(1,0,0,1,15,15)" stroke-miterlimit="1.45">
        <rect fill="none" x="429" width="80" height="60" y="267"/>
      </g>
    </g>
    <g id="y.node.33">
      <g fill="rgb(232,196,218)" transform="matrix(1,0,0,1,15,15)" stroke="rgb(232,196,218)">
        <rect x="341" width="80" height="60" y="308" stroke="none"/>
      </g>
      <g>
        <g stroke-miterlimit="1.45" font-family="sans-serif" transform="matrix(1,0,0,1,15,15)" stroke-linecap="butt">
          <text x="373.3652" xml:space="preserve" y="342.1562" stroke="none">34</text>
        </g>
      </g>
      <g stroke-linecap="butt" transform="matrix(1,0,0,1,15,15)" stroke-miterlimit="1.45">
        <rect fill="none" x="341" width="80" height="60" y="308"/>
      </g>
    </g>
    <g id="y.node.34">
      <g fill="rgb(196,196,255)" transform="matrix(1,0,0,1,15,15)" stroke="rgb(196,196,255)">
        <ellipse rx="35" ry="30" cx="862" cy="643" stroke="none"/>
      </g>
      <g>
        <g stroke-miterlimit="1.45" font-family="sans-serif" transform="matrix(1,0,0,1,15,15)" stroke-linecap="butt">
          <text x="854.3652" xml:space="preserve" y="647.1562" stroke="none">35</text>
        </g>
      </g>
      <g stroke-linecap="butt" transform="matrix(1,0,0,1,15,15)" stroke-miterlimit="1.45">
        <ellipse rx="35" fill="none" ry="30" cx="862" cy="643"/>
      </g>
    </g>
    <g id="y.node.35">
      <g fill="rgb(240,196,210)" transform="matrix(1,0,0,1,15,15)" stroke="rgb(240,196,210)">
        <rect x="341" y="209" width="80" rx="4" ry="4" height="30" stroke="none"/>
      </g>
      <g>
        <g stroke-miterlimit="1.45" font-family="sans-serif" transform="matrix(1,0,0,1,15,15)" stroke-linecap="butt">
          <text x="373.3652" xml:space="preserve" y="228.1562" stroke="none">36</text>
        </g>
      </g>
      <g stroke-linecap="butt" transform="matrix(1,0,0,1,15,15)" stroke-miterlimit="1.45">
        <rect x="341" y="209" fill="none" width="80" rx="4" ry="4" height="30"/>
      </g>
    </g>
    <g id="y.node.36">
      <g fill="rgb(232,196,218)" transform="matrix(1,0,0,1,15,15)" stroke="rgb(232,196,218)">
        <ellipse rx="35" ry="15" cx="664" cy="206" stroke="none"/>
      </g>
      <g>
        <g stroke-miterlimit="1.45" font-family="sans-serif" transform="matrix(1,0,0,1,15,15)" stroke-linecap="butt">
          <text x="656.3652" xml:space="preserve" y="210.1562" stroke="none">37</text>
        </g>
      </g>
      <g stroke-linecap="butt" transform="matrix(1,0,0,1,15,15)" stroke-miterlimit="1.45">
        <ellipse rx="35" fill="none" ry="15" cx="664" cy="206"/>
      </g>
    </g>
    <g id="y.node.37">
      <g fill="rgb(232,196,218)" transform="matrix(1,0,0,1,15,15)" stroke="rgb(232,196,218)">
        <rect x="521" width="80" height="30" y="38" stroke="none"/>
      </g>
      <g>
        <g stroke-miterlimit="1.45" font-family="sans-serif" transform="matrix(1,0,0,1,15,15)" stroke-linecap="butt">
          <text x="553.3652" xml:space="preserve" y="57.1562" stroke="none">38</text>
        </g>
      </g>
      <g stroke-linecap="butt" transform="matrix(1,0,0,1,15,15)" stroke-miterlimit="1.45">
        <rect fill="none" x="521" width="80" height="30" y="38"/>
      </g>
    </g>
    <g id="y.node.38">
      <g fill="rgb(232,196,218)" transform="matrix(1,0,0,1,15,15)" stroke="rgb(232,196,218)">
        <rect x="588" y="264" width="60" rx="4" ry="4" height="30" stroke="none"/>
      </g>
      <g>
        <g stroke-miterlimit="1.45" font-family="sans-serif" transform="matrix(1,0,0,1,15,15)" stroke-linecap="butt">
          <text x="610.3652" xml:space="preserve" y="283.1562" stroke="none">39</text>
        </g>
      </g>
      <g stroke-linecap="butt" transform="matrix(1,0,0,1,15,15)" stroke-miterlimit="1.45">
        <rect x="588" y="264" fill="none" width="60" rx="4" ry="4" height="30"/>
      </g>
    </g>
    <g id="y.node.39">
      <g fill="rgb(225,196,225)" transform="matrix(1,0,0,1,15,15)" stroke="rgb(225,196,225)">
        <rect x="681" width="40" height="30" y="290" stroke="none"/>
      </g>
      <g>
        <g stroke-miterlimit="1.45" font-family="sans-serif" transform="matrix(1,0,0,1,15,15)" stroke-linecap="butt">
          <text x="693.3652" xml:space="preserve" y="309.1562" stroke="none">40</text>
        </g>
      </g>
      <g stroke-linecap="butt" transform="matrix(1,0,0,1,15,15)" stroke-miterlimit="1.45">
        <rect fill="none" x="681" width="40" height="30" y="290"/>
      </g>
    </g>
    <g id="y.edge.24">
      <g stroke-linecap="butt" transform="matrix(1,0,0,1,15,15)" stroke-miterlimit="1.45">
        <path fill="none" d="M324.7054 169 L368.2791 93.9192"/>
      </g>
      <g stroke-linecap="butt" transform="matrix(1,0,0,1,15,15)" stroke-miterlimit="1.45">
        <path d="M372.2946 87 L361.9468 94.869 L367.7771 94.7841 L370.5957 99.8885 Z" stroke="none"/>
      </g>
    </g>
    <g id="y.edge.49">
      <g stroke-linecap="butt" transform="matrix(1,0,0,1,15,15)" stroke-miterlimit="1.45">
        <path fill="none" d="M80.1807 657.0083 L71.5508 665.4111"/>
        <path d="M65.819 670.992 L77.9048 666.2029 L72.2673 664.7134 L70.9286 659.0383 Z" stroke="none"/>
      </g>
    </g>
    <g id="y.edge.1">
      <g stroke-linecap="butt" transform="matrix(1,0,0,1,15,15)" stroke-miterlimit="1.45">
        <path fill="none" d="M286.8182 199 L239.8633 223.1357"/>
        <path d="M232.7482 226.793 L245.7066 225.754 L240.7527 222.6785 L241.135 216.8601 Z" stroke="none"/>
      </g>
    </g>
    <g id="y.edge.14">
      <g stroke-linecap="butt" transform="matrix(1,0,0,1,15,15)" stroke-miterlimit="1.45">
        <path fill="none" d="M357.0205 404.1855 L396.1643 411.3026"/>
        <path d="M404.0353 412.7337 L393.1233 405.6677 L395.1805 411.1237 L391.3344 415.5064 Z" stroke="none"/>
      </g>
    </g>
    <g id="y.edge.22">
      <g stroke-linecap="butt" transform="matrix(1,0,0,1,15,15)" stroke-miterlimit="1.45">
        <path fill="none" d="M528 403.0645 L491.8324 410.3564"/>
        <path d="M483.9902 411.9374 L496.7417 414.4672 L492.8127 410.1587 L494.7654 404.6644 Z" stroke="none"/>
      </g>
    </g>
    <g id="y.edge.9">
      <g stroke-linecap="butt" transform="matrix(1,0,0,1,15,15)" stroke-miterlimit="1.45">
        <path fill="none" d="M310.3154 380.9792 L302.5689 311.9058"/>
        <path d="M301.6773 303.9556 L298.0458 316.4381 L302.6803 312.8995 L307.9835 315.3236 Z" stroke="none"/>
      </g>
    </g>
    <g id="y.edge.17">
      <g stroke-linecap="butt" transform="matrix(1,0,0,1,15,15)" stroke-miterlimit="1.45">
        <path fill="none" d="M313.7143 199 L303.4886 266.1059"/>
        <path d="M302.2835 274.0146 L309.0341 262.9048 L303.6393 265.1173 L299.1483 261.3984 Z" stroke="none"/>
      </g>
    </g>
    <g id="y.edge.3">
      <g stroke-linecap="butt" transform="matrix(1,0,0,1,15,15)" stroke-miterlimit="1.45">
        <path fill="none" d="M175.7227 233.949 L139.9094 228.513"/>
        <path d="M132 227.3125 L143.1138 234.0567 L140.8981 228.6631 L144.6144 224.1699 Z" stroke="none"/>
      </g>
    </g>
    <g id="y.edge.11">
      <g stroke-linecap="butt" transform="matrix(1,0,0,1,15,15)" stroke-miterlimit="1.45">
        <path fill="none" d="M563.338 255.9475 L560.0416 293.0314"/>
        <path d="M559.3333 301 L565.3762 289.4898 L560.1302 292.0353 L555.4154 288.6044 Z" stroke="none"/>
      </g>
    </g>
    <g id="y.edge.13">
      <g stroke-linecap="butt" transform="matrix(1,0,0,1,15,15)" stroke-miterlimit="1.45">
        <path fill="none" d="M559.8987 331 L563.1979 357.0633"/>
        <path d="M564.2025 365 L567.656 352.4671 L563.0723 356.0713 L557.7352 353.7229 Z" stroke="none"/>
      </g>
    </g>
    <g id="y.edge.27">
      <g stroke-linecap="butt" transform="matrix(1,0,0,1,15,15)" stroke-miterlimit="1.45">
        <path fill="none" d="M520 179.8696 L555.1703 170.083"/>
        <path d="M562.8775 167.9384 L549.9763 166.3384 L554.2069 170.3511 L552.6571 175.9723 Z" stroke="none"/>
      </g>
    </g>
    <g id="y.edge.2">
      <g stroke-linecap="butt" transform="matrix(1,0,0,1,15,15)" stroke-miterlimit="1.45">
        <path fill="none" d="M361 183.0816 L380.9768 182.674"/>
        <path d="M388.9751 182.5107 L376.8756 177.7566 L379.977 182.6944 L377.0796 187.7545 Z" stroke="none"/>
      </g>
    </g>
    <g id="y.edge.6">
      <g stroke-linecap="butt" transform="matrix(1,0,0,1,15,15)" stroke-miterlimit="1.45">
        <path fill="none" d="M424.8545 166.9846 L450.8785 130.9848"/>
        <path d="M455.5652 124.5014 L444.483 131.2972 L450.2926 131.7952 L452.5872 137.1557 Z" stroke="none"/>
      </g>
    </g>
    <g id="y.edge.8">
      <g stroke-linecap="butt" transform="matrix(1,0,0,1,15,15)" stroke-miterlimit="1.45">
        <path fill="none" d="M438.9746 189.2295 L517.0387 211.827"/>
        <path d="M524.7232 214.0515 L514.5867 205.9119 L516.0781 211.5489 L511.8062 215.5176 Z" stroke="none"/>
      </g>
    </g>
    <g id="y.edge.4">
      <g stroke-linecap="butt" transform="matrix(1,0,0,1,15,15)" stroke-miterlimit="1.45">
        <path fill="none" d="M212.1318 266.6646 L218.404 322.0684"/>
        <path d="M219.3039 330.0176 L222.9223 317.5313 L218.2915 321.0747 L212.9858 318.6562 Z" stroke="none"/>
      </g>
    </g>
    <g id="y.edge.7">
      <g stroke-linecap="butt" transform="matrix(1,0,0,1,15,15)" stroke-miterlimit="1.45">
        <path fill="none" d="M242.2608 356.9154 L278.2902 377.1077"/>
        <path d="M285.2689 381.0188 L277.2453 370.7904 L277.4178 376.6188 L272.3563 379.5138 Z" stroke="none"/>
      </g>
    </g>
    <g id="y.edge.46">
      <g stroke-linecap="butt" transform="matrix(1,0,0,1,15,15)" stroke-miterlimit="1.45">
        <path fill="none" d="M735.75 611 L709.05 646.6"/>
        <path d="M704.25 653 L715.45 646.4 L709.65 645.8 L707.45 640.4 Z" stroke="none"/>
      </g>
    </g>
    <g id="y.edge.5">
      <g stroke-linecap="butt" transform="matrix(1,0,0,1,15,15)" stroke-miterlimit="1.45">
        <path fill="none" d="M316.4546 169 L316.8488 155.9886"/>
        <path d="M317.0912 147.9923 L311.7299 159.8353 L316.8185 156.9881 L321.7253 160.1382 Z" stroke="none"/>
      </g>
    </g>
    <g id="y.edge.25">
      <g stroke-linecap="butt" transform="matrix(1,0,0,1,15,15)" stroke-miterlimit="1.45">
        <path fill="none" d="M346.6608 97.073 L353.9955 91.7176"/>
        <path d="M360.4565 87 L347.8165 90.0382 L353.1879 92.3073 L353.7135 98.1145 Z" stroke="none"/>
      </g>
    </g>
    <g id="y.edge.47">
      <g stroke-linecap="butt" transform="matrix(1,0,0,1,15,15)" stroke-miterlimit="1.45">
        <path fill="none" d="M403.1053 57 L436.4692 34.3602"/>
        <path d="M443.089 29.8682 L430.3518 32.4688 L435.6417 34.9217 L435.9668 40.7436 Z" stroke="none"/>
      </g>
    </g>
    <g id="y.edge.0">
      <g stroke-linecap="butt" transform="matrix(1,0,0,1,15,15)" stroke-miterlimit="1.45">
        <path fill="none" d="M292.3158 169 L256.4427 146.2804"/>
        <path d="M249.6842 142 L257.1468 152.6447 L257.2876 146.8155 L262.4973 144.1965 Z" stroke="none"/>
      </g>
    </g>
    <g id="y.edge.15">
      <g stroke-linecap="butt" transform="matrix(1,0,0,1,15,15)" stroke-miterlimit="1.45">
        <path fill="none" d="M299.8274 411.0073 L268.3646 449.7971"/>
        <path d="M263.325 456.0103 L274.7675 449.8403 L268.9945 449.0205 L267.0011 443.5408 Z" stroke="none"/>
      </g>
    </g>
    <g id="y.edge.32">
      <g stroke-linecap="butt" transform="matrix(1,0,0,1,15,15)" stroke-miterlimit="1.45">
        <path fill="none" d="M604.8702 144.4638 L637.595 96.2691"/>
        <path d="M642.0891 89.6507 L631.2115 96.7696 L637.0333 97.0964 L639.4846 102.3871 Z" stroke="none"/>
      </g>
    </g>
    <g id="y.edge.28">
      <g stroke-linecap="butt" transform="matrix(1,0,0,1,15,15)" stroke-miterlimit="1.45">
        <path fill="none" d="M582.4231 425 L607.3245 476.7949"/>
        <path d="M610.7908 484.0049 L610.0975 471.0234 L606.8912 475.8936 L601.085 475.3564 Z" stroke="none"/>
      </g>
    </g>
    <g id="y.edge.39">
      <g stroke-linecap="butt" transform="matrix(1,0,0,1,15,15)" stroke-miterlimit="1.45">
        <path fill="none" d="M647.9795 499.8328 L679.4119 500.7059"/>
        <path d="M687.4088 500.928 L675.5522 495.5967 L678.4122 500.6781 L675.2745 505.5929 Z" stroke="none"/>
      </g>
    </g>
    <g id="y.edge.41">
      <g stroke-linecap="butt" transform="matrix(1,0,0,1,15,15)" stroke-miterlimit="1.45">
        <path fill="none" d="M731.7319 527.6572 L741.9047 573.1924"/>
        <path d="M743.6489 581 L745.9124 568.1985 L741.6867 572.2165 L736.1529 570.3788 Z" stroke="none"/>
      </g>
    </g>
    <g id="y.edge.42">
      <g stroke-linecap="butt" transform="matrix(1,0,0,1,15,15)" stroke-miterlimit="1.45">
        <path fill="none" d="M754.2346 510.8071 L792.3629 522.7004"/>
        <path d="M800 525.0826 L790.0333 516.7361 L791.4083 522.4026 L787.0555 526.2825 Z" stroke="none"/>
      </g>
    </g>
    <g id="y.edge.23">
      <g stroke-linecap="butt" transform="matrix(1,0,0,1,15,15)" stroke-miterlimit="1.45">
        <path fill="none" d="M212.7603 515.9883 L194.389 536.984"/>
        <path d="M189.121 543.0046 L200.7859 537.2662 L195.0475 536.2314 L193.2602 530.6812 Z" stroke="none"/>
      </g>
    </g>
    <g id="y.edge.38">
      <g stroke-linecap="butt" transform="matrix(1,0,0,1,15,15)" stroke-miterlimit="1.45">
        <path fill="none" d="M161.8765 572.9927 L144.7309 591.1933"/>
        <path d="M139.2454 597.0164 L151.1132 591.7102 L145.4166 590.4654 L143.8343 584.8533 Z" stroke="none"/>
      </g>
    </g>
    <g id="y.edge.36">
      <g stroke-linecap="butt" transform="matrix(1,0,0,1,15,15)" stroke-miterlimit="1.45">
        <path fill="none" d="M455.9099 435.0168 L487.5799 474.9486"/>
        <path d="M492.5511 481.2166 L489.0118 468.7076 L486.9585 474.1651 L481.1768 474.9216 Z" stroke="none"/>
      </g>
    </g>
    <g id="y.edge.37">
      <g stroke-linecap="butt" transform="matrix(1,0,0,1,15,15)" stroke-miterlimit="1.45">
        <path fill="none" d="M587.9817 501.2871 L560.7721 503.3602"/>
        <path d="M552.7952 503.968 L565.1404 508.0419 L561.7692 503.2843 L564.3807 498.0708 Z" stroke="none"/>
      </g>
    </g>
    <g id="y.edge.48">
      <g stroke-linecap="butt" transform="matrix(1,0,0,1,15,15)" stroke-miterlimit="1.45">
        <path fill="none" d="M733 680.5843 L757.9796 688.443"/>
        <path d="M765.6108 690.8439 L755.6646 682.473 L757.0257 688.1429 L752.6635 692.0121 Z" stroke="none"/>
      </g>
    </g>
    <g id="y.edge.35">
      <g stroke-linecap="butt" transform="matrix(1,0,0,1,15,15)" stroke-miterlimit="1.45">
        <path fill="none" d="M621.1265 513.9741 L632.2259 567.1345"/>
        <path d="M633.861 574.9656 L636.3028 562.197 L632.0215 566.1556 L626.5139 564.2408 Z" stroke="none"/>
      </g>
    </g>
    <g id="y.edge.44">
      <g stroke-linecap="butt" transform="matrix(1,0,0,1,15,15)" stroke-miterlimit="1.45">
        <path fill="none" d="M647.7461 604.9678 L677.5651 646.5014"/>
        <path d="M682.2308 653 L679.2939 640.3361 L676.9819 645.6891 L671.1707 646.1682 Z" stroke="none"/>
      </g>
    </g>
    <g id="y.edge.29">
      <g stroke-linecap="butt" transform="matrix(1,0,0,1,15,15)" stroke-miterlimit="1.45">
        <path fill="none" d="M476.8868 221 L472.939 259.0427"/>
        <path d="M472.1132 267 L478.3251 255.5802 L473.0422 258.0481 L468.3785 254.548 Z" stroke="none"/>
      </g>
    </g>
    <g id="y.edge.30">
      <g stroke-linecap="butt" transform="matrix(1,0,0,1,15,15)" stroke-miterlimit="1.45">
        <path fill="none" d="M379.0734 368 L375.4763 424.0111"/>
        <path d="M374.9637 431.9946 L380.7224 420.3397 L375.5404 423.0131 L370.743 419.6989 Z" stroke="none"/>
      </g>
    </g>
    <g id="y.edge.31">
      <g stroke-linecap="butt" transform="matrix(1,0,0,1,15,15)" stroke-miterlimit="1.45">
        <path fill="none" d="M421 319.3636 L421.7484 319.0149"/>
        <path d="M429 315.6364 L416.011 316.172 L420.842 319.4373 L420.2343 325.2365 Z" stroke="none"/>
      </g>
    </g>
    <g id="y.edge.43">
      <g stroke-linecap="butt" transform="matrix(1,0,0,1,15,15)" stroke-miterlimit="1.45">
        <path fill="none" d="M842.5701 566 L852.6437 605.9211"/>
        <path d="M854.601 613.678 L856.5131 600.8193 L852.399 604.9515 L846.817 603.266 Z" stroke="none"/>
      </g>
    </g>
    <g id="y.edge.45">
      <g stroke-linecap="butt" transform="matrix(1,0,0,1,15,15)" stroke-miterlimit="1.45">
        <path fill="none" d="M834.3076 661.3463 L800.5457 683.7135"/>
        <path d="M793.8765 688.1318 L806.6417 685.6725 L801.3793 683.1612 L801.1188 677.3361 Z" stroke="none"/>
      </g>
    </g>
    <g id="y.edge.10">
      <g stroke-linecap="butt" transform="matrix(1,0,0,1,15,15)" stroke-miterlimit="1.45">
        <path fill="none" d="M334.2855 145.401 L367.994 202.117"/>
        <path d="M372.0814 208.994 L370.2485 196.1239 L367.4831 201.2574 L361.6522 201.233 Z" stroke="none"/>
      </g>
    </g>
    <g id="y.edge.18">
      <g stroke-linecap="butt" transform="matrix(1,0,0,1,15,15)" stroke-miterlimit="1.45">
        <path fill="none" d="M420.3728 210.8757 L432.4105 206.8632"/>
        <path d="M440 204.3333 L427.0347 203.3847 L431.4619 207.1794 L430.1969 212.8715 Z" stroke="none"/>
      </g>
    </g>
    <g id="y.edge.26">
      <g stroke-linecap="butt" transform="matrix(1,0,0,1,15,15)" stroke-miterlimit="1.45">
        <path fill="none" d="M381 239.0015 L381 300"/>
        <path d="M381 308 L386 296 L381 299 L376 296 Z" stroke="none"/>
      </g>
    </g>
    <g id="y.edge.16">
      <g stroke-linecap="butt" transform="matrix(1,0,0,1,15,15)" stroke-miterlimit="1.45">
        <path fill="none" d="M609.029 217.2186 L624.5615 214.0487"/>
        <path d="M632.3999 212.449 L619.6425 209.9495 L623.5817 214.2487 L621.642 219.7475 Z" stroke="none"/>
      </g>
    </g>
    <g id="y.edge.33">
      <g stroke-linecap="butt" transform="matrix(1,0,0,1,15,15)" stroke-miterlimit="1.45">
        <path fill="none" d="M590.2231 144.1073 L568.2548 75.6177"/>
        <path d="M565.8113 68 L564.7154 80.9537 L568.5602 76.5699 L574.2375 77.8994 Z" stroke="none"/>
      </g>
    </g>
    <g id="y.edge.34">
      <g stroke-linecap="butt" transform="matrix(1,0,0,1,15,15)" stroke-miterlimit="1.45">
        <path fill="none" d="M628.8364 72.0552 L608.7019 66.3994"/>
        <path d="M601 64.236 L611.2007 72.2948 L609.6647 66.6698 L613.905 62.6675 Z" stroke="none"/>
      </g>
    </g>
    <g id="y.edge.40">
      <g stroke-linecap="butt" transform="matrix(1,0,0,1,15,15)" stroke-miterlimit="1.45">
        <path fill="none" d="M523.1053 38 L497.4339 27.8384"/>
        <path d="M489.9955 24.894 L499.3129 33.9597 L498.3637 28.2065 L502.9934 24.6616 Z" stroke="none"/>
      </g>
    </g>
    <g id="y.edge.12">
      <g stroke-linecap="butt" transform="matrix(1,0,0,1,15,15)" stroke-miterlimit="1.45">
        <path fill="none" d="M590.6326 251.1063 L597.6713 258.2803"/>
        <path d="M603.274 263.9908 L598.4389 251.9234 L596.9709 257.5665 L591.3008 258.9268 Z" stroke="none"/>
      </g>
    </g>
    <g id="y.edge.19">
      <g stroke-linecap="butt" transform="matrix(1,0,0,1,15,15)" stroke-miterlimit="1.45">
        <path fill="none" d="M611.5425 293.9814 L584.0977 357.6534"/>
        <path d="M580.931 365 L590.2726 355.9593 L584.4935 356.7351 L581.0894 352.001 Z" stroke="none"/>
      </g>
    </g>
    <g id="y.edge.21">
      <g stroke-linecap="butt" transform="matrix(1,0,0,1,15,15)" stroke-miterlimit="1.45">
        <path fill="none" d="M615.1194 263.9707 L599.3735 181.8184"/>
        <path d="M597.8676 173.9614 L595.2159 186.6881 L599.5618 182.8005 L605.0371 184.8057 Z" stroke="none"/>
      </g>
    </g>
    <g id="y.edge.20">
      <g stroke-linecap="butt" transform="matrix(1,0,0,1,15,15)" stroke-miterlimit="1.45">
        <path fill="none" d="M648.0308 288.4072 L673.3658 296.3435"/>
        <path d="M681 298.735 L671.0433 290.3764 L672.4115 296.0446 L668.0541 299.9192 Z" stroke="none"/>
      </g>
    </g>
  </g>
</svg>
